<svg xmlns="http://www.w3.org/2000/svg" width="141" height="38" viewBox="0 0 141 38" fill="none"><path fill-rule="evenodd" clip-rule="evenodd" d="M19.2712 0.949432C18.9832 2.46668 18.6982 3.96651 18.4132 5.46633C18.3528 5.7829 18.2894 6.09946 18.237 6.41807C18.2128 6.56354 18.1605 6.62296 18.0004 6.62296C17.1706 6.61272 16.3398 6.62296 15.51 6.62296C12.7634 6.62296 10.0166 6.62296 7.26942 6.62296C7.07406 6.62296 7.01161 6.65677 7.01161 6.87498C7.01967 9.89786 7.01967 12.9211 7.01161 15.9446C7.01161 16.128 7.0529 16.1772 7.23719 16.1772C10.2089 16.1711 13.1787 16.1772 16.1524 16.168C16.3478 16.168 16.3911 16.1956 16.3539 16.4057C16.0142 18.152 15.6835 19.9001 15.3619 21.6499C15.3297 21.8261 15.2512 21.8477 15.1001 21.8477C12.4818 21.8477 9.87058 21.8477 7.25532 21.8395C7.06398 21.8395 7.01362 21.8815 7.01462 22.0812C7.02134 25.3882 7.02134 28.6956 7.01462 32.0033C7.01462 32.1959 7.05894 32.2522 7.2543 32.2512C9.17874 32.243 11.1032 32.2512 13.0266 32.2512C13.3025 32.2512 13.2985 32.2512 13.2441 32.537C12.9138 34.2694 12.5815 36.0007 12.2603 37.7352C12.2311 37.8929 12.1726 37.9165 12.0367 37.9165C8.20997 37.9165 4.38325 37.9165 0.556526 37.9165C0.339007 37.9165 0.350103 37.8141 0.355138 37.6655C0.355138 31.714 0.355138 25.7625 0.355138 19.811C0.355138 13.615 0.353454 7.41864 0.350098 1.22194C0.350098 1.00271 0.408506 0.95763 0.614948 0.95763C6.74442 0.963776 12.8739 0.963776 19.0033 0.95763L19.2712 0.949432Z" fill="#22B0AF"></path><path fill-rule="evenodd" clip-rule="evenodd" d="M13.653 37.9001C14.0034 36.0561 14.3519 34.2407 14.6903 32.4223C14.7215 32.2553 14.7909 32.2348 14.937 32.2348C16.8503 32.2348 18.7536 32.2594 20.6619 32.2143C22.3152 32.2228 23.9597 31.9687 25.536 31.4613C25.9749 31.3072 26.3979 31.1096 26.7988 30.8712C27.4999 30.4673 28.0834 29.8819 28.4901 29.1743C28.8968 28.4667 29.1121 27.6622 29.1143 26.8426C29.1164 26.0229 28.9053 25.2173 28.5023 24.5075C28.0994 23.7977 27.5189 23.2091 26.8199 22.8014C26.3007 22.5191 25.7471 22.3076 25.1734 22.1724C23.8644 21.9066 22.5299 21.7935 21.1956 21.8354C19.7858 21.8354 18.3736 21.8354 16.9591 21.8354C16.7879 21.8354 16.7204 21.8179 16.7577 21.6131C17.098 19.8667 17.43 18.1189 17.7536 16.3698C17.7879 16.1823 17.8654 16.1557 18.0265 16.1567C19.2219 16.1567 20.4162 16.1741 21.6106 16.1454C22.6747 16.1601 23.7333 15.9889 24.7404 15.6393C25.6516 15.3193 26.4289 14.6939 26.9448 13.8656C27.4608 13.0373 27.6848 12.0553 27.5803 11.0804C27.5609 10.544 27.4526 10.0148 27.26 9.51505C27.0296 8.93084 26.6686 8.40918 26.2058 7.99134C25.743 7.57349 25.191 7.27092 24.5934 7.10754C23.5233 6.77928 22.411 6.6156 21.2934 6.62194C20.805 6.60862 20.3156 6.61272 19.8271 6.62194C19.6801 6.62194 19.6176 6.60043 19.6509 6.42832C19.9939 4.65256 20.333 2.87408 20.668 1.09286C20.6851 1.00373 20.7033 0.954556 20.808 0.952507C23.7145 0.761211 26.6204 1.33454 29.2459 2.61728C31.1416 3.5359 32.67 5.08834 33.5761 7.01534C34.274 8.44832 34.5724 10.0485 34.4389 11.6419C34.3054 13.2354 33.745 14.7611 32.8188 16.0532C32.0994 17.0406 31.1641 17.8442 30.0868 18.4003C30.0113 18.4433 29.8793 18.4546 29.8854 18.5673C29.8914 18.7015 30.0374 18.68 30.122 18.7117C31.3782 19.1505 32.5353 19.841 33.5248 20.7422C34.3676 21.5305 35.0254 22.5013 35.4497 23.583C35.8739 24.6647 36.0538 25.8296 35.9759 26.9915C35.9404 29.1952 35.1578 31.3189 33.7604 33.0031C32.3856 34.6325 30.6198 35.8724 28.6346 36.6021C27.0309 37.1917 25.358 37.5647 23.6589 37.7116C21.2763 37.9513 18.8856 37.894 16.4969 37.9022C15.5593 37.9052 14.6207 37.9001 13.653 37.9001Z" fill="#4B4C4C"></path><path fill-rule="evenodd" clip-rule="evenodd" d="M116.655 16.4211V15.8166C116.655 11.3315 116.662 6.8453 116.644 2.35913C116.644 1.91349 116.754 1.80081 117.181 1.82232C117.946 1.86023 118.716 1.84589 119.483 1.82232C119.769 1.81515 119.831 1.91452 119.831 2.18806C119.824 8.71736 119.824 15.2467 119.831 21.776C119.831 22.07 119.736 22.1304 119.471 22.1233C118.744 22.2198 118.007 22.1973 117.288 22.0567C116.648 21.8036 116.319 20.983 115.861 20.4062C112.642 16.3479 109.43 12.2842 106.222 8.21502C106.143 8.11258 106.06 8.01935 105.902 7.83085V8.40555C105.902 12.8108 105.896 17.216 105.913 21.6141C105.913 22.03 105.82 22.1448 105.41 22.1263C104.661 22.0894 103.907 22.1017 103.157 22.1263C102.855 22.1355 102.736 22.069 102.747 21.7278C102.774 20.8816 102.756 20.0333 102.756 19.1861C102.756 13.5542 102.753 7.92203 102.745 2.28948C102.745 1.86637 102.855 1.75776 103.257 1.78337C103.906 1.8264 104.654 1.6133 105.185 1.87454C105.717 2.13578 106.041 2.84063 106.446 3.36003C109.713 7.5474 112.979 11.7361 116.243 15.9262C116.351 16.0635 116.465 16.1967 116.655 16.4211Z" fill="#22B0AF"></path><path fill-rule="evenodd" clip-rule="evenodd" d="M45.4229 11.9544C45.4229 8.73244 45.4229 5.5095 45.4168 2.28651C45.4168 1.93307 45.4541 1.77428 45.875 1.77428C50.0549 1.7934 54.2351 1.7934 58.4156 1.77428C58.7791 1.77428 58.8929 1.85622 58.8738 2.2363C58.835 2.88453 58.835 3.53453 58.8738 4.18276C58.903 4.61919 58.7167 4.65303 58.3703 4.65098C55.3009 4.64073 52.2274 4.65714 49.161 4.63153C48.6705 4.63153 48.5416 4.74317 48.5567 5.24619C48.594 6.82285 48.5809 8.40156 48.5618 9.97925C48.5618 10.3327 48.6625 10.4198 48.9978 10.4177C51.6423 10.4034 54.2888 10.4259 56.9333 10.3952C57.4267 10.3952 57.5375 10.5356 57.4982 10.9976C57.4625 11.5434 57.4625 12.0909 57.4982 12.6367C57.5173 12.984 57.4196 13.0762 57.0732 13.0742C54.4116 13.0578 51.75 13.0742 49.0885 13.0527C48.6423 13.0527 48.5547 13.1777 48.5618 13.6049C48.5873 15.3123 48.5873 17.0232 48.5618 18.7375C48.5557 19.1596 48.6363 19.2948 49.0864 19.2907C52.2707 19.2671 55.4549 19.2907 58.6382 19.2682C59.049 19.2682 59.1658 19.3798 59.1417 19.7927C59.1054 20.4391 59.1225 21.0886 59.1417 21.7392C59.1477 21.9963 59.1105 22.1192 58.8073 22.1182C54.4476 22.1087 50.0878 22.1087 45.728 22.1182C45.3252 22.1182 45.4319 21.8693 45.4319 21.6644C45.4245 18.4332 45.4215 15.1965 45.4229 11.9544Z" fill="#22B0AF"></path><path fill-rule="evenodd" clip-rule="evenodd" d="M84.2339 11.9256C84.2339 8.70262 84.24 5.47961 84.2259 2.25765C84.2259 1.90318 84.2823 1.78132 84.669 1.78337C88.8656 1.80044 93.0616 1.80044 97.2569 1.78337C97.6083 1.78337 97.6949 1.8858 97.6808 2.22695C97.6546 2.8908 97.6526 3.55877 97.6808 4.21955C97.6959 4.57402 97.5861 4.65803 97.2458 4.657C94.124 4.64369 91.0082 4.65698 87.8895 4.6365C87.4423 4.6365 87.3597 4.76152 87.3668 5.18462C87.3923 6.76299 87.3923 8.34099 87.3668 9.91868C87.3597 10.3459 87.4906 10.4309 87.8864 10.4258C90.5309 10.4074 93.1763 10.4258 95.8218 10.4073C96.1934 10.4073 96.3314 10.4842 96.3062 10.8868C96.2728 11.4839 96.2728 12.0825 96.3062 12.6796C96.3223 13.0177 96.2055 13.0843 95.8974 13.0823C93.2197 13.071 90.542 13.0822 87.8633 13.0679C87.4977 13.0679 87.3597 13.1335 87.3688 13.5474C87.395 15.3084 87.392 17.0695 87.3688 18.8295C87.3688 19.2055 87.4594 19.2988 87.826 19.2978C91.0263 19.2824 94.2267 19.2977 97.427 19.2803C97.8157 19.2803 97.9759 19.349 97.9487 19.7864C97.9094 20.4318 97.9245 21.0823 97.9487 21.7329C97.9577 22.0259 97.8994 22.1314 97.5801 22.1304C93.2532 22.1188 88.926 22.1188 84.5985 22.1304C84.2218 22.1304 84.2299 21.9645 84.2309 21.6909C84.2363 18.4365 84.2373 15.1814 84.2339 11.9256Z" fill="#22B0AF"></path><path fill-rule="evenodd" clip-rule="evenodd" d="M80.4203 1.79359C79.7466 3.52085 79.095 5.19591 78.4394 6.86887C76.5126 11.7863 74.5882 16.7072 72.6661 21.6315C72.6314 21.7956 72.5352 21.9396 72.398 22.0329C72.2608 22.1262 72.0933 22.1615 71.9309 22.1314C71.3126 22.0935 70.6903 22.1119 70.071 22.1314C69.9774 22.1477 69.8813 22.1283 69.801 22.0769C69.7207 22.0254 69.6619 21.9456 69.6359 21.8528C67.0277 15.249 64.4155 8.64736 61.7992 2.04771C61.7738 1.96591 61.7526 1.88277 61.7357 1.79872C62.7972 1.79872 63.8324 1.79872 64.8666 1.79872C65.1577 1.79872 65.1456 2.04462 65.206 2.20853C66.493 5.65964 67.7753 9.1121 69.0529 12.5659C69.7182 14.3588 70.3862 16.1533 71.0569 17.9495C71.2522 17.8799 71.2411 17.7037 71.2865 17.5808C73.1616 12.498 75.0289 7.41249 76.8886 2.32427C76.919 2.15106 77.0157 1.99721 77.1575 1.89639C77.2992 1.79557 77.4745 1.75606 77.6449 1.78646C78.5421 1.82437 79.4424 1.79359 80.4203 1.79359Z" fill="#22B0AF"></path><path fill-rule="evenodd" clip-rule="evenodd" d="M130.556 13.3999C130.556 10.6584 130.543 7.9179 130.569 5.17744C130.569 4.72052 130.441 4.6365 130.025 4.64163C128.132 4.66519 126.236 4.64158 124.342 4.66207C123.967 4.66207 123.868 4.55963 123.884 4.18979C123.913 3.51057 123.906 2.82729 123.884 2.14704C123.876 1.85506 123.979 1.7905 124.247 1.7905C129.489 1.79733 134.731 1.79733 139.973 1.7905C140.286 1.7905 140.358 1.89294 140.349 2.18799C140.33 2.86824 140.323 3.55159 140.349 4.23081C140.365 4.60065 140.222 4.66312 139.899 4.66107C138.021 4.64673 136.142 4.66725 134.264 4.64369C133.837 4.63857 133.701 4.72562 133.702 5.19688C133.722 10.6614 133.709 16.128 133.725 21.5884C133.725 22.0167 133.643 22.1581 133.2 22.1325C132.451 22.0894 131.697 22.1038 130.947 22.1325C130.629 22.1427 130.544 22.0535 130.544 21.7226C130.563 18.9484 130.556 16.1741 130.556 13.3999Z" fill="#22B0AF"></path><path fill-rule="evenodd" clip-rule="evenodd" d="M105.12 29.27C105.12 31.9736 105.113 34.548 105.128 37.1215C105.128 37.4801 105.067 37.6276 104.683 37.5866C104.233 37.5405 103.633 37.726 103.362 37.4934C103.092 37.2609 103.277 36.6205 103.277 36.1616C103.269 32.8402 103.277 29.519 103.264 26.1966C103.264 25.8165 103.349 25.7253 103.736 25.6925C104.052 25.6527 104.372 25.7059 104.658 25.8457C104.945 25.9855 105.186 26.2062 105.353 26.4814C107.196 28.9329 109.099 31.3383 110.98 33.7612C111.08 33.8913 111.181 34.0194 111.289 34.1557C111.444 34.0266 111.368 33.8678 111.368 33.7367C111.373 31.2114 111.38 28.687 111.363 26.1627C111.363 25.7919 111.444 25.6689 111.815 25.7038C112.266 25.7478 112.864 25.5614 113.139 25.7929C113.414 26.0244 113.224 26.6638 113.225 27.1248C113.233 30.4297 113.225 33.7347 113.238 37.0396C113.238 37.4494 113.174 37.5692 112.725 37.6061C112.393 37.6441 112.057 37.5853 111.756 37.4368C111.456 37.2883 111.203 37.0561 111.027 36.7671C109.195 34.3688 107.301 32.0176 105.434 29.6501C105.354 29.5487 105.274 29.4555 105.12 29.27Z" fill="#4B4C4C"></path><path fill-rule="evenodd" clip-rule="evenodd" d="M125.291 36.1759C124.669 36.8674 123.858 37.3531 122.962 37.5702C122.242 37.7277 121.495 37.7118 120.781 37.5238C120.068 37.3358 119.408 36.981 118.853 36.4874C118.146 35.89 117.578 35.141 117.189 34.2942C116.8 33.4473 116.6 32.5235 116.603 31.5888C116.606 30.6541 116.812 29.7316 117.207 28.8874C117.601 28.0432 118.174 27.2982 118.885 26.7057C119.433 26.266 120.063 25.9446 120.737 25.7607C121.411 25.5769 122.115 25.5345 122.806 25.6363C123.497 25.7381 124.16 25.9818 124.755 26.3527C125.35 26.7236 125.865 27.2139 126.267 27.7937C126.469 28.1184 126.506 28.3171 126.131 28.5261C125.791 28.7167 125.5 29.1409 125.168 29.1624C124.835 29.1839 124.736 28.6245 124.486 28.354C124.149 27.9964 123.74 27.7181 123.286 27.5385C122.833 27.359 122.346 27.2826 121.86 27.3147C121.374 27.3468 120.901 27.4866 120.474 27.7244C120.047 27.9622 119.677 28.2921 119.388 28.6911C118.792 29.5386 118.469 30.5542 118.465 31.5968C118.462 32.6394 118.777 33.6573 119.368 34.5091C120.846 36.4659 123.446 36.5355 125.195 34.3769C125.485 34.0184 125.296 33.5113 125.296 33.0738C125.296 32.9437 125.105 32.996 125 32.9949C124.395 32.9949 123.791 32.9847 123.187 32.9949C122.965 32.9949 122.885 32.9478 122.87 32.6958C122.821 31.5914 122.811 31.5914 123.91 31.5914C124.775 31.5914 125.64 31.5996 126.505 31.5914C126.755 31.5914 126.88 31.6129 126.878 31.9274C126.862 33.7028 126.864 35.4813 126.878 37.2546C126.878 37.521 126.801 37.5999 126.549 37.5835C126.161 37.559 125.673 37.7034 125.407 37.5159C125.142 37.3284 125.351 36.8059 125.319 36.432L125.291 36.1759Z" fill="#4B4C4C"></path><path fill-rule="evenodd" clip-rule="evenodd" d="M130.304 34.5184C130.99 35.0898 131.789 35.5062 132.646 35.7397C133.503 35.9732 134.399 36.0185 135.274 35.8728C135.484 35.8569 135.687 35.7928 135.869 35.6852C136.051 35.5775 136.206 35.4293 136.323 35.2516C136.44 35.0739 136.516 34.8714 136.545 34.6596C136.573 34.4477 136.554 34.2321 136.489 34.0288C136.412 33.8175 136.292 33.6257 136.135 33.4665C135.979 33.3073 135.79 33.1846 135.583 33.1067C134.875 32.81 134.145 32.5729 133.399 32.3978C132.901 32.2451 132.401 32.0904 131.913 31.9122C131.386 31.7773 130.912 31.4793 130.559 31.0593C130.205 30.6392 129.988 30.1178 129.938 29.5671C129.847 28.9622 129.928 28.3433 130.172 27.784C130.416 27.2247 130.813 26.7484 131.316 26.4118C132.04 25.9559 132.86 25.6779 133.708 25.6C134.557 25.5221 135.412 25.6465 136.205 25.9631C136.759 26.1613 137.287 26.4268 137.779 26.7539C138.039 26.9148 138.051 27.0499 137.904 27.2999C137.664 27.7097 137.462 28.1472 137.24 28.5805C136.698 28.0709 136.045 27.6991 135.334 27.4953C134.624 27.2914 133.876 27.2614 133.152 27.4076C132.882 27.4408 132.627 27.5476 132.413 27.7166C132.198 27.8856 132.033 28.1106 131.934 28.3675C131.856 28.5341 131.813 28.7151 131.808 28.8994C131.802 29.0837 131.834 29.2672 131.902 29.4383C131.969 29.6094 132.071 29.7645 132.2 29.8939C132.329 30.0232 132.483 30.1241 132.652 30.19C133.487 30.5171 134.344 30.7845 135.216 30.9901C135.696 31.1489 136.185 31.2851 136.648 31.4828C137.24 31.6697 137.751 32.0583 138.094 32.5831C138.438 33.1079 138.593 33.7371 138.534 34.3648C138.55 35.0016 138.365 35.6268 138.008 36.1498C137.65 36.6727 137.138 37.0664 136.546 37.2733C134.849 37.873 132.995 37.8239 131.331 37.135C130.749 36.9167 130.198 36.6204 129.693 36.2539C129.542 36.1515 129.458 36.0603 129.578 35.8554C129.836 35.4159 130.066 34.9599 130.304 34.5184Z" fill="#4B4C4C"></path><path fill-rule="evenodd" clip-rule="evenodd" d="M86.9882 31.9121L90.0193 28.5139C90.7656 27.677 91.5148 26.844 92.2509 25.9978C92.3222 25.8997 92.4165 25.8215 92.5253 25.7703C92.634 25.7191 92.7537 25.6966 92.8733 25.7048C93.3768 25.7283 93.8803 25.712 94.4845 25.712C94.269 25.963 94.1069 26.1566 93.9417 26.3472C92.7081 27.7651 91.4866 29.1952 90.2278 30.5895C89.9377 30.9112 89.9821 31.0885 90.2137 31.3999C91.7001 33.3987 93.1653 35.4138 94.6376 37.4238C94.6557 37.4484 94.6698 37.477 94.7302 37.5764C94.0807 37.5764 93.4734 37.5825 92.8662 37.5764C92.6739 37.5764 92.6205 37.3715 92.5289 37.2465C91.3647 35.6247 90.1985 34.0051 89.0485 32.3721C88.8562 32.0996 88.7515 32.0811 88.5279 32.3382C88.0425 32.8976 87.3315 33.3483 87.0737 33.9927C86.9246 34.7215 86.8964 35.4705 86.9902 36.2088C86.9791 36.6534 87.1745 37.2332 86.9147 37.5026C86.6548 37.772 86.0778 37.5385 85.6448 37.5876C85.242 37.6348 85.1332 37.5006 85.1352 37.0754C85.1533 33.4556 85.1533 29.8338 85.1352 26.2099C85.1352 25.7847 85.245 25.6587 85.6478 25.7038C85.9733 25.737 86.3012 25.737 86.6266 25.7038C86.9388 25.6751 87.0022 25.7867 87.0002 26.089C86.9811 27.9842 86.9882 29.8786 86.9882 31.9121Z" fill="#4B4C4C"></path><path fill-rule="evenodd" clip-rule="evenodd" d="M99.2397 31.6713C99.2397 33.499 99.2296 35.3266 99.2478 37.1532C99.2478 37.5016 99.1692 37.6266 98.8218 37.5836C98.3585 37.5272 97.7342 37.7885 97.4683 37.4811C97.2387 37.2107 97.3948 36.5959 97.3948 36.1339C97.3948 32.8115 97.4009 29.4881 97.3837 26.1658C97.3837 25.7837 97.4844 25.6731 97.845 25.7089C98.1867 25.7402 98.5304 25.7402 98.8721 25.7089C99.1813 25.6813 99.2497 25.7889 99.2467 26.0931C99.2316 27.9495 99.2397 29.8109 99.2397 31.6713Z" fill="#4B4C4C"></path><path fill-rule="evenodd" clip-rule="evenodd" d="M54.4328 33.3985C54.2823 32.9408 54.0259 32.5266 53.6852 32.1907C53.3446 31.8548 52.9295 31.6072 52.4751 31.4685C53.1393 31.139 53.652 30.5602 53.9051 29.8539C54.0902 29.3925 54.16 28.8917 54.1086 28.3962C54.0571 27.9007 53.8859 27.4258 53.6102 27.0139C53.3345 26.6021 52.9629 26.2661 52.5285 26.0359C52.0941 25.8056 51.6104 25.6884 51.1207 25.6946C49.3966 25.8042 47.6595 25.7263 45.9294 25.7088C45.5639 25.7088 45.433 25.7765 45.438 26.1863C45.4622 28.0631 45.4491 29.941 45.4491 31.8209V37.2034C45.4491 37.3991 45.3977 37.5948 45.722 37.5917C47.6353 37.5753 49.5487 37.6522 51.452 37.5528C51.9513 37.5731 52.4478 37.4681 52.8978 37.2469C53.3477 37.0257 53.7372 36.6953 54.0318 36.2847C54.3264 35.8741 54.5171 35.3959 54.5871 34.8926C54.657 34.3892 54.604 33.8761 54.4328 33.3985V33.3985ZM47.585 27.2917C48.1389 27.2999 48.6927 27.2917 49.2486 27.2917C49.738 27.2917 50.2274 27.2845 50.7158 27.2917C50.9284 27.2909 51.1388 27.3344 51.3342 27.4195C51.5295 27.5046 51.7056 27.6296 51.8517 27.7867C51.9978 27.9437 52.1107 28.1294 52.1834 28.3325C52.2562 28.5357 52.2873 28.7519 52.2747 28.9677C52.3156 29.4032 52.1859 29.8375 51.9138 30.1763C51.6417 30.515 51.2492 30.7309 50.8216 30.7769C49.731 30.8251 48.6373 30.7892 47.5447 30.7994C47.3534 30.7994 47.294 30.7349 47.296 30.5423C47.303 29.5465 47.306 28.5517 47.296 27.5559C47.2879 27.3224 47.3856 27.2835 47.582 27.2866L47.585 27.2917ZM51.2536 35.9741C50.018 36.0314 48.7783 35.9936 47.5407 36.0048C47.3443 36.0048 47.295 35.9269 47.296 35.7405C47.303 34.6801 47.305 33.6188 47.296 32.5585C47.296 32.3177 47.4037 32.2952 47.592 32.2973C48.2114 32.3044 48.8297 32.2973 49.449 32.2973C49.9868 32.2973 50.5245 32.2911 51.0602 32.2973C51.2805 32.3024 51.4977 32.3517 51.6992 32.4423C51.9008 32.5329 52.0828 32.6631 52.2349 32.8254C52.3869 32.9876 52.5061 33.1787 52.5855 33.3878C52.6649 33.5969 52.703 33.8198 52.6977 34.0439C52.7539 34.4944 52.6332 34.9492 52.362 35.3098C52.0907 35.6703 51.6907 35.9075 51.2486 35.9699L51.2536 35.9741Z" fill="#4B4C4C"></path><path fill-rule="evenodd" clip-rule="evenodd" d="M67.5546 28.8345C67.2 28.0037 66.6439 27.2781 65.9384 26.7255C65.233 26.173 64.4013 25.8117 63.5211 25.6753C62.6409 25.539 61.7411 25.632 60.906 25.9459C60.0708 26.2598 59.3277 26.7841 58.746 27.4699C57.7864 28.5937 57.2426 30.0232 57.2084 31.5115C57.1742 32.9997 57.6518 34.4534 58.5587 35.6216C59.0482 36.2635 59.6755 36.783 60.3926 37.1403C61.1097 37.4977 61.8976 37.6835 62.6961 37.6835C63.4947 37.6835 64.2826 37.4977 64.9997 37.1403C65.7168 36.783 66.3441 36.2635 66.8335 35.6216C67.7302 34.5073 68.2141 33.1082 68.2011 31.6682C68.2003 30.6859 67.9792 29.7167 67.5546 28.8345ZM65.4086 34.5542C65.115 34.9808 64.728 35.3322 64.2782 35.5808C63.8283 35.8293 63.3279 35.9682 62.8163 35.9864C62.3047 36.0047 61.796 35.9019 61.3301 35.6861C60.8643 35.4702 60.454 35.1472 60.1317 34.7426C59.4554 33.8631 59.086 32.7797 59.0818 31.6631C59.0776 30.5464 59.4388 29.4601 60.1085 28.5754C60.4855 28.1069 60.9772 27.7477 61.5341 27.5343C62.091 27.3208 62.6934 27.2606 63.2805 27.3596C63.8675 27.4586 64.4186 27.7134 64.878 28.0983C65.3374 28.4832 65.6889 28.9845 65.897 29.5517C66.1845 30.2035 66.3301 30.9108 66.324 31.6252C66.3455 32.6778 66.0233 33.7079 65.4076 34.5542H65.4086Z" fill="#4B4C4C"></path><path fill-rule="evenodd" clip-rule="evenodd" d="M81.1886 28.8642C80.8392 28.0311 80.2876 27.3019 79.5855 26.7449C78.8834 26.1879 78.0538 25.8213 77.1743 25.6796C76.2949 25.5379 75.3945 25.6257 74.5576 25.9348C73.7206 26.2438 72.9745 26.7638 72.3892 27.4463C71.4181 28.5713 70.866 30.0074 70.8292 31.5041C70.7924 33.0007 71.2732 34.463 72.1878 35.636C72.6786 36.2774 73.3073 36.7958 74.0257 37.1516C74.7441 37.5073 75.5331 37.6907 76.3321 37.6879C77.131 37.6852 77.9188 37.4962 78.6348 37.1355C79.3508 36.7749 79.976 36.2521 80.4625 35.6073C81.4001 34.4081 81.8814 32.9052 81.818 31.3743C81.7916 30.5008 81.5767 29.6438 81.1886 28.8642V28.8642ZM78.8725 34.7581C78.5802 35.122 78.2159 35.4193 77.8033 35.6305C77.3906 35.8417 76.9389 35.962 76.4774 35.9838C76.016 36.0055 75.5552 35.9281 75.1252 35.7567C74.6951 35.5852 74.3053 35.3235 73.9813 34.9886C73.1657 34.0846 72.7098 32.9044 72.7021 31.6774C72.6945 30.4504 73.1357 29.2644 73.94 28.35C74.2638 28.0029 74.6569 27.7304 75.0929 27.5507C75.5288 27.3711 75.9975 27.2886 76.4675 27.3086C76.9374 27.3286 77.3977 27.4506 77.8174 27.6667C78.2371 27.8827 78.6064 28.1876 78.9006 28.561C79.6258 29.4671 79.9989 30.6126 79.949 31.7799C79.9454 32.8704 79.5638 33.9246 78.8714 34.7571L78.8725 34.7581Z" fill="#4B4C4C"></path></svg>