<svg width="176" height="40" viewBox="0 0 176 40" fill="none" xmlns="http://www.w3.org/2000/svg">
<path d="M8.275 28.0446C8.23918 28.2035 8.22156 28.3658 8.22248 28.5285C8.21118 29.2398 8.39245 29.9413 8.74774 30.5611C9.0944 31.1519 9.56159 31.666 10.12 32.071C10.702 32.4958 11.3553 32.8168 12.0503 33.0195C12.7734 33.238 13.5262 33.3467 14.2827 33.3421C15.5528 33.3675 16.8122 33.1094 17.9661 32.5872C19.0424 32.079 20.0148 31.3814 20.8353 30.5288L26.3899 34.8068C24.7567 36.5599 22.7348 37.9199 20.4808 38.7816C18.2459 39.6066 15.8755 40.02 13.4882 40.0011C11.6865 40.0159 9.89372 39.7502 8.17652 39.2139C6.60966 38.7291 5.15821 37.9391 3.90878 36.891C2.68196 35.8412 1.70472 34.5394 1.0461 33.0776C0.324713 31.437 -0.0312339 29.6637 0.00214865 27.8768C-0.0157123 25.6677 0.403509 23.4762 1.23651 21.4243C2.0223 19.4846 3.18156 17.7122 4.6507 16.2042C6.13328 14.6988 7.91126 13.5046 9.87705 12.694C11.9838 11.8231 14.2493 11.384 16.5347 11.4035C18.2103 11.3827 19.8773 11.6401 21.4656 12.1649C22.881 12.6276 24.1841 13.3723 25.2935 14.3523C26.3782 15.3359 27.2242 16.5466 27.7688 17.8948C28.3842 19.4462 28.6832 21.1015 28.6486 22.7664C28.6346 23.591 28.571 24.4141 28.4582 25.2313C28.3389 26.1698 28.1635 27.1005 27.9329 28.0188L8.275 28.0446ZM20.75 22.7406C20.7891 22.5625 20.8089 22.3808 20.809 22.1986V21.6566C20.822 21.097 20.7113 20.5412 20.4846 20.0277C20.2579 19.5141 19.9206 19.055 19.4959 18.682C18.4596 17.8289 17.1286 17.4014 15.7797 17.4882C14.8641 17.4746 13.9558 17.6505 13.114 18.0045C12.3617 18.3287 11.6643 18.7639 11.0458 19.295C10.4806 19.7755 9.99734 20.3419 9.61442 20.9726C9.27077 21.5282 9.01194 22.1305 8.84622 22.76L20.75 22.7406Z" fill="#33475B"/>
<path d="M46.5652 39.188L42.2712 30.9094L34.7862 39.188H24.1562L38.0363 25.0634L30.7089 12.2422H40.3474L44.1424 19.5981L50.7082 12.2422H61.0099L48.397 25.2311L56.3285 39.188H46.5652Z" fill="#33475B"/>
<path d="M80.1289 39.188L84.9219 12.2422H93.7857L88.8811 39.188H80.1289Z" fill="#33475B"/>
<path d="M85.2734 9.77573L86.974 0.742188C88.0541 0.743995 89.1205 0.979394 90.0977 1.43169C91.0748 1.88398 91.9386 2.54207 92.6279 3.35928C93.3172 4.17648 93.8151 5.13276 94.0861 6.16026C94.3572 7.18776 94.3948 8.2613 94.1963 9.30469L94.1175 9.74346L85.2734 9.77573Z" fill="#33475B"/>
<path d="M94.9375 18.7318L96.1522 12.2406H100.486L101.799 5.09766H103.013C103.918 5.09749 104.812 5.29192 105.632 5.66733C106.452 6.04275 107.178 6.59003 107.76 7.27074C108.342 7.95145 108.765 8.74909 109 9.60765C109.235 10.4662 109.276 11.3649 109.12 12.2406H114.93L113.722 18.7318H108.049L106.08 29.3269C106.047 29.5786 106.014 29.8431 106.001 30.1141C105.988 30.3851 105.968 30.611 105.968 30.7916C105.925 31.1387 105.973 31.491 106.109 31.8143C106.245 32.1375 106.463 32.4209 106.743 32.6371C107.378 32.9962 108.106 33.1665 108.837 33.1275C109.277 33.1278 109.717 33.0911 110.15 33.0178C110.571 32.9468 110.945 32.8758 111.28 32.8048L110.452 39.0251C109.752 39.2927 109.023 39.4831 108.279 39.5929C107.397 39.75 106.503 39.8321 105.607 39.8381C102.981 39.8381 100.88 39.309 99.3563 38.2637C97.833 37.2184 97.0714 35.5536 97.0714 33.2694C97.0739 32.7715 97.1024 32.2739 97.1567 31.7789C97.2081 31.2415 97.2892 30.7073 97.3997 30.1786L99.4941 18.7318H94.9375Z" fill="#33475B"/>
<path d="M121.279 28.0447C121.243 28.2036 121.225 28.3659 121.226 28.5287C121.215 29.2399 121.396 29.9414 121.752 30.5612C122.098 31.152 122.566 31.6661 123.124 32.0711C123.706 32.4959 124.359 32.8169 125.054 33.0196C125.777 33.2381 126.53 33.3469 127.287 33.3422C128.557 33.3676 129.816 33.1095 130.97 32.5873C132.044 32.079 133.015 31.3813 133.833 30.5289L139.394 34.807C137.761 36.56 135.739 37.92 133.485 38.7817C131.25 39.6067 128.879 40.0201 126.492 40.0013C124.69 40.016 122.898 39.7503 121.18 39.2141C119.614 38.7292 118.162 37.9392 116.913 36.8911C115.686 35.8413 114.709 34.5395 114.05 33.0777C113.329 31.4371 112.973 29.6639 113.006 27.8769C112.988 25.6678 113.407 23.4763 114.24 21.4244C115.026 19.4847 116.185 17.7123 117.655 16.2043C119.133 14.708 120.904 13.5206 122.861 12.7135C124.968 11.8426 127.233 11.4035 129.519 11.423C131.194 11.4027 132.861 11.6601 134.45 12.1844C135.865 12.6471 137.168 13.3917 138.278 14.3718C139.362 15.3554 140.208 16.5661 140.753 17.9142C141.365 19.4666 141.664 21.1213 141.633 22.7859C141.619 23.6105 141.555 24.4335 141.442 25.2508C141.323 26.1892 141.148 27.12 140.917 28.0383L121.279 28.0447ZM133.754 22.7407C133.791 22.5624 133.808 22.3807 133.806 22.1987V21.6567C133.819 21.0971 133.709 20.5413 133.482 20.0278C133.255 19.5142 132.918 19.0551 132.493 18.6821C131.457 17.8291 130.126 17.4015 128.777 17.4884C127.861 17.4747 126.953 17.6506 126.111 18.0046C125.358 18.3273 124.661 18.7626 124.043 19.2951C123.478 19.7756 122.995 20.342 122.612 20.9727C122.268 21.5284 122.009 22.1306 121.844 22.7601L133.754 22.7407Z" fill="#33475B"/>
<path d="M168.617 5.09766C169.696 5.09728 170.762 5.32937 171.739 5.77761C172.717 6.22584 173.583 6.8793 174.276 7.69196C174.969 8.50462 175.472 9.45673 175.75 10.4812C176.028 11.5057 176.074 12.5776 175.885 13.6214L171.25 39.1864H163.154L163.811 35.5084H163.647C162.675 36.892 161.344 37.9948 159.792 38.7024C158.085 39.4777 156.223 39.8658 154.343 39.8381C152.714 39.8613 151.096 39.5674 149.583 38.9734C148.224 38.4331 147.001 37.6098 145.998 36.5602C145.009 35.5055 144.251 34.2624 143.772 32.9081C143.239 31.4137 142.977 29.8391 142.997 28.2558C142.982 26.0436 143.365 23.8462 144.127 21.7645C144.834 19.823 145.898 18.0253 147.265 16.4606C148.596 14.952 150.227 13.7267 152.058 12.8601C153.957 11.9668 156.039 11.5142 158.144 11.5373C159.963 11.4878 161.767 11.8778 163.397 12.6729C164.768 13.3482 165.909 14.4022 166.68 15.7056H166.798L168.617 5.09766ZM151.756 27.1201C151.703 28.6009 152.213 30.048 153.187 31.1788C154.141 32.2628 155.555 32.8048 157.429 32.8048C158.494 32.8121 159.547 32.5803 160.508 32.1273C161.459 31.6808 162.305 31.0434 162.99 30.2561C163.698 29.4436 164.248 28.5095 164.612 27.5008C165 26.4415 165.196 25.3232 165.189 24.1971C165.218 23.4501 165.097 22.7048 164.832 22.0039C164.567 21.303 164.164 20.6603 163.647 20.1127C163.103 19.5722 162.45 19.1509 161.729 18.8762C161.008 18.6015 160.236 18.4797 159.464 18.5189C158.36 18.504 157.267 18.7356 156.267 19.1964C155.333 19.6268 154.508 20.2548 153.85 21.0354C153.169 21.8437 152.646 22.7692 152.307 23.7648C151.934 24.8452 151.748 25.9793 151.756 27.1201Z" fill="#33475B"/>
<path d="M63.6495 22.4375H55.1468L53.6367 30.8193H62.1394L63.6495 22.4375Z" fill="#F9AC67"/>
<path d="M71.3377 16.1884C70.0613 17.4363 69.0495 18.9206 68.3608 20.5554C67.6722 22.1902 67.3205 23.943 67.326 25.7123C67.3243 27.0638 66.7772 28.3593 65.8049 29.3149C64.8325 30.2705 63.5142 30.8081 62.139 30.8098L60.6289 39.1981C64.2926 39.1981 69.2432 37.785 71.8301 35.2427C73.1082 33.9945 74.1215 32.5093 74.8112 30.8733C75.501 29.2374 75.8535 27.4832 75.8484 25.7123C75.8501 24.3609 76.3971 23.0654 77.3695 22.1098C78.3419 21.1542 79.6602 20.6166 81.0353 20.6149L82.5389 12.2266C78.8817 12.2395 73.9311 13.6397 71.3377 16.1884Z" fill="#FF7959"/>
</svg>
