<svg width="257" height="43" viewBox="0 0 257 43" fill="none" xmlns="http://www.w3.org/2000/svg">
<path opacity="0.9" fill-rule="evenodd" clip-rule="evenodd" d="M54.5852 19.6963C51.0988 25.8093 49.6987 28.9095 47.7695 28.906C45.2661 28.9009 44.3847 26.9552 44.1859 13.7033C44.0963 7.57581 42.0118 4.02906 37.7618 5.67215C34.5741 6.90383 32.04 13.6159 30.4982 17.0212C25.8711 27.2407 24.6108 21.882 21.7337 16.5927C8.52898 -7.6766 -2.52132 1.91453 0.503414 1.6574C3.87713 1.37112 12.2943 6.04414 18.5366 26.147C22.5904 36.471 28.4342 36.9423 33.7968 28.1689C35.8293 24.8441 40.575 15.3687 40.5084 20.7437C40.4419 26.1187 41.191 35.475 46.4026 36.1941C50.3369 36.7366 52.4999 33.0871 55.5323 24.1182C56.2572 21.6358 57.3972 19.2953 58.9034 17.1969C59.3232 16.6021 57.6381 14.3479 54.5852 19.6963Z" fill="black"/>
<path opacity="0.9" fill-rule="evenodd" clip-rule="evenodd" d="M54.5852 19.6963C51.0988 25.8093 49.6987 28.9095 47.7695 28.906C45.2661 28.9009 44.3847 26.9552 44.1859 13.7033C44.0963 7.57581 42.0118 4.02906 37.7618 5.67215C34.5741 6.90383 32.04 13.6159 30.4982 17.0212C25.8711 27.2407 24.6108 21.882 21.7337 16.5927C8.52898 -7.6766 -2.52132 1.91453 0.503414 1.6574C3.87713 1.37112 12.2943 6.04414 18.5366 26.147C22.5904 36.471 28.4342 36.9423 33.7968 28.1689C35.8292 24.8441 40.575 15.3687 40.5084 20.7437C40.4419 26.1187 41.191 35.475 46.4026 36.1941C50.3369 36.7366 52.4999 33.0871 55.5323 24.1182C56.2572 21.6358 57.3972 19.2953 58.9034 17.1969C59.3232 16.6021 57.6381 14.3479 54.5852 19.6963Z" fill="black"/>
<path d="M33.9326 39.5451C33.9328 40.1244 33.7619 40.6906 33.4417 41.1724C33.1215 41.6541 32.6663 42.0296 32.1336 42.2515C31.6009 42.4733 31.0147 42.5315 30.4491 42.4186C29.8835 42.3058 29.364 42.027 28.9561 41.6175C28.5482 41.208 28.2704 40.6863 28.1578 40.1182C28.0451 39.5501 28.1027 38.9612 28.3232 38.426C28.5437 37.8907 28.9172 37.4332 29.3966 37.1112C29.876 36.7893 30.4396 36.6174 31.0162 36.6172C31.7894 36.6172 32.5309 36.9256 33.0778 37.4746C33.6247 38.0237 33.9322 38.7684 33.9326 39.5451Z" fill="black"/>
<path d="M43.7373 39.5451C43.7375 40.1244 43.5666 40.6907 43.2464 41.1725C42.9261 41.6542 42.4708 42.0297 41.9381 42.2515C41.4054 42.4733 40.8191 42.5315 40.2535 42.4186C39.6879 42.3056 39.1683 42.0268 38.7605 41.6172C38.3527 41.2076 38.0749 40.6858 37.9623 40.1176C37.8498 39.5495 37.9075 38.9606 38.1281 38.4254C38.3488 37.8902 38.7224 37.4327 39.2019 37.1108C39.6814 36.789 40.2451 36.6172 40.8218 36.6172C41.5949 36.6172 42.3363 36.9256 42.8831 37.4747C43.4298 38.0238 43.7371 38.7685 43.7373 39.5451Z" fill="black"/>
<path d="M70.7148 11.9929H72.7174C72.9087 11.9857 73.0968 12.0434 73.2515 12.1566C73.3885 12.2589 73.489 12.4029 73.5382 12.5672L77.2191 25.0117C77.2865 25.2371 77.3454 25.4796 77.4 25.7368C77.4546 25.9939 77.5049 26.2656 77.5553 26.5485C77.6133 26.2656 77.6713 25.9922 77.7259 25.7308C77.7785 25.4874 77.8451 25.2473 77.9256 25.0117L82.1175 12.5672C82.177 12.4118 82.278 12.276 82.4093 12.1746C82.558 12.0523 82.7454 11.9878 82.9375 11.9929H83.6338C83.8236 11.985 84.0103 12.0428 84.1628 12.1566C84.2977 12.2621 84.3991 12.4047 84.4546 12.5672L88.6218 25.0117C88.7852 25.4982 88.9181 25.9946 89.0194 26.4979C89.0697 26.2236 89.1141 25.9613 89.1559 25.7119C89.194 25.475 89.2481 25.2411 89.318 25.0117L93.0185 12.5672C93.067 12.4074 93.1651 12.2675 93.2984 12.1677C93.4497 12.0508 93.6366 11.9902 93.8274 11.9963H95.7045L90.144 29.9006H87.9802L83.4622 16.2416C83.3609 15.9468 83.2777 15.6459 83.2131 15.3408C83.1721 15.5122 83.1329 15.6691 83.0954 15.8225C83.0578 15.9759 83.0194 16.1165 82.9776 16.2416L78.4384 29.8972H76.2737L70.7148 11.9929Z" fill="black"/>
<path d="M102.295 17.0361C103.009 17.0284 103.718 17.1578 104.384 17.4175C105.007 17.6614 105.571 18.036 106.038 18.5163C106.52 19.0249 106.891 19.6293 107.127 20.2905C107.399 21.0624 107.531 21.8769 107.518 22.6956C107.539 22.9342 107.5 23.1742 107.406 23.3942C107.356 23.4575 107.29 23.5066 107.215 23.5366C107.14 23.5667 107.059 23.5767 106.979 23.5656H98.6013C98.6036 24.2741 98.7129 24.9781 98.9256 25.6535C99.0978 26.1969 99.377 26.6999 99.7464 27.1329C100.086 27.5227 100.512 27.8266 100.99 28.02C101.505 28.2212 102.054 28.3208 102.606 28.3132C103.092 28.3228 103.577 28.2574 104.043 28.1195C104.4 28.0084 104.747 27.8682 105.082 27.7003C105.331 27.5742 105.574 27.4349 105.809 27.2829C105.955 27.1709 106.13 27.1036 106.313 27.0892C106.396 27.085 106.479 27.1022 106.554 27.1393C106.628 27.1764 106.692 27.232 106.74 27.3009L107.362 28.1135C107.081 28.4526 106.749 28.7458 106.379 28.9826C105.994 29.2293 105.583 29.4325 105.153 29.5886C104.715 29.747 104.263 29.8663 103.804 29.9451C103.347 30.0228 102.886 30.0621 102.423 30.0625C101.6 30.0717 100.783 29.9209 100.017 29.6185C99.2949 29.3318 98.6449 28.8884 98.1133 28.32C97.5549 27.7088 97.1292 26.9875 96.8633 26.2021C96.5501 25.269 96.3986 24.2888 96.4153 23.3042C96.4083 22.4622 96.5451 21.6252 96.8197 20.8297C97.0703 20.0941 97.4655 19.4168 97.9819 18.8377C98.4979 18.2676 99.1299 17.8157 99.8351 17.5126C100.613 17.1837 101.451 17.0214 102.295 17.0361ZM102.344 18.6723C101.883 18.6472 101.421 18.7168 100.987 18.8769C100.553 19.0369 100.156 19.284 99.8206 19.6031C99.1666 20.3129 98.7643 21.2199 98.6764 22.1831H105.53C105.535 21.7019 105.463 21.223 105.318 20.7645C105.188 20.3548 104.976 19.9758 104.696 19.6503C104.42 19.3371 104.078 19.0897 103.695 18.926C103.267 18.751 102.809 18.6652 102.347 18.674L102.344 18.6723Z" fill="black"/>
<path d="M110.414 29.895V11.4961H112.64V19.067C113.146 18.4729 113.755 17.9757 114.437 17.5996C115.151 17.2189 115.95 17.0275 116.758 17.0434C117.439 17.0337 118.114 17.1748 118.735 17.4565C119.329 17.7359 119.846 18.1584 120.239 18.6865C120.683 19.2943 121.008 19.9813 121.197 20.711C121.434 21.6182 121.547 22.5536 121.533 23.4914C121.54 24.3734 121.414 25.2514 121.159 26.0954C120.934 26.853 120.569 27.5611 120.083 28.1825C119.607 28.7861 118.998 29.2709 118.305 29.5992C117.611 29.9275 116.851 30.0903 116.085 30.075C115.366 30.0971 114.653 29.9339 114.015 29.601C113.431 29.2706 112.924 28.8188 112.528 28.2759L112.417 29.4261C112.402 29.5644 112.333 29.6912 112.227 29.7797C112.12 29.8682 111.983 29.9115 111.845 29.9001L110.414 29.895ZM116.035 18.8125C115.369 18.7978 114.712 18.9709 114.139 19.3122C113.555 19.6834 113.046 20.1628 112.64 20.7247V26.8471C112.975 27.342 113.431 27.7418 113.965 28.0076C114.474 28.2383 115.028 28.3536 115.586 28.3453C116.107 28.3738 116.626 28.2736 117.098 28.0536C117.571 27.8337 117.983 27.5006 118.297 27.0836C118.991 26.0178 119.323 24.7549 119.243 23.4837C119.255 22.7695 119.182 22.0564 119.024 21.3598C118.91 20.8381 118.697 20.3433 118.396 19.9027C118.141 19.5393 117.794 19.252 117.389 19.0713C116.961 18.8918 116.5 18.8037 116.035 18.8125Z" fill="black"/>
<path d="M137.155 26.1975C137.222 26.1986 137.289 26.2136 137.351 26.2416C137.413 26.2696 137.469 26.31 137.515 26.3604L138.461 27.3975C137.731 28.2465 136.824 28.9243 135.805 29.3834C134.615 29.8871 133.333 30.1299 132.043 30.0957C130.844 30.1129 129.653 29.8849 128.545 29.4254C127.529 29.0016 126.617 28.3629 125.87 27.5526C125.111 26.7134 124.527 25.7297 124.153 24.6599C123.736 23.468 123.529 22.2119 123.544 20.9485C123.529 19.6816 123.751 18.4232 124.197 17.2381C124.605 16.1562 125.23 15.1696 126.032 14.3393C126.835 13.5217 127.798 12.881 128.861 12.458C130.019 12.0022 131.254 11.7755 132.498 11.7902C133.587 11.7517 134.671 11.9331 135.688 12.3237C136.705 12.7143 137.634 13.3062 138.419 14.0642L137.635 15.1784C137.58 15.2577 137.513 15.3275 137.436 15.385C137.339 15.444 137.226 15.4718 137.113 15.4647C136.99 15.46 136.871 15.4188 136.771 15.3464C136.652 15.2682 136.51 15.1704 136.345 15.0533C136.18 14.9362 135.985 14.8113 135.761 14.6787C135.507 14.5316 135.24 14.4057 134.965 14.3024C134.617 14.1755 134.259 14.0778 133.895 14.0102C133.431 13.9266 132.961 13.887 132.49 13.8919C131.593 13.8811 130.704 14.0486 129.872 14.3847C129.097 14.7018 128.399 15.1817 127.824 15.7921C127.233 16.432 126.779 17.1866 126.489 18.0095C126.158 18.9523 125.996 19.9464 126.01 20.946C125.993 21.9622 126.155 22.9735 126.489 23.933C126.775 24.7515 127.218 25.5053 127.794 26.1512C128.34 26.7507 129.01 27.2219 129.757 27.5312C130.53 27.8521 131.359 28.0135 132.195 28.0061C132.673 28.01 133.151 27.9787 133.626 27.9126C134.026 27.8566 134.42 27.7583 134.8 27.6195C135.154 27.4903 135.492 27.3207 135.807 27.1138C136.138 26.8936 136.451 26.6492 136.746 26.3827C136.855 26.273 137 26.2072 137.155 26.1975Z" fill="black"/>
<path d="M146.383 17.0358C147.236 17.0237 148.084 17.181 148.876 17.4987C149.595 17.7909 150.241 18.2386 150.768 18.81C151.303 19.4058 151.709 20.1062 151.962 20.8671C152.517 22.6214 152.517 24.505 151.962 26.2593C151.708 27.0172 151.301 27.7146 150.768 28.3086C150.242 28.8797 149.596 29.3257 148.876 29.614C147.269 30.222 145.496 30.222 143.889 29.614C143.169 29.3251 142.521 28.8792 141.992 28.3086C141.455 27.7155 141.044 27.018 140.786 26.2593C140.222 24.5065 140.222 22.6199 140.786 20.8671C141.043 20.1053 141.453 19.405 141.992 18.81C142.522 18.239 143.169 17.7914 143.889 17.4987C144.682 17.181 145.53 17.0237 146.383 17.0358ZM146.383 28.3309C146.915 28.368 147.447 28.2727 147.933 28.0535C148.419 27.8343 148.843 27.498 149.169 27.0744C149.773 26.0024 150.09 24.7918 150.09 23.5602C150.09 22.3286 149.773 21.118 149.169 20.046C148.845 19.6208 148.42 19.2831 147.934 19.0629C147.448 18.8427 146.915 18.747 146.383 18.7843C145.819 18.771 145.258 18.8819 144.741 19.1092C144.283 19.3209 143.883 19.6426 143.579 20.046C143.248 20.4956 143.011 21.0075 142.882 21.5511C142.576 22.8763 142.576 24.2543 142.882 25.5796C143.011 26.119 143.248 26.6264 143.579 27.071C143.885 27.4715 144.284 27.791 144.741 28.0018C145.257 28.2316 145.818 28.3445 146.383 28.3326V28.3309Z" fill="black"/>
<path d="M155.113 29.8924V17.2379H156.432C156.57 17.2273 156.708 17.2688 156.819 17.3543C156.929 17.4397 157.004 17.5631 157.029 17.7007L157.191 18.9993C157.631 18.4464 158.159 17.9695 158.752 17.5876C159.355 17.2135 160.053 17.0227 160.761 17.0382C161.516 17.004 162.255 17.2585 162.831 17.7505C163.385 18.27 163.78 18.9375 163.97 19.6747C164.129 19.2415 164.363 18.8397 164.66 18.4876C164.936 18.1631 165.261 17.8845 165.623 17.6622C165.977 17.447 166.361 17.2869 166.762 17.1873C167.163 17.0876 167.575 17.0372 167.988 17.0373C168.593 17.0272 169.195 17.1352 169.759 17.3553C170.265 17.5592 170.716 17.8784 171.077 18.2879C171.455 18.7258 171.737 19.2386 171.905 19.793C172.105 20.4549 172.201 21.1439 172.191 21.8355V29.8924H169.972V21.8355C170.029 21.0308 169.8 20.232 169.327 19.5804C169.092 19.3178 168.801 19.112 168.476 18.9784C168.151 18.8448 167.8 18.7868 167.449 18.809C167.094 18.8074 166.742 18.8731 166.411 19.0027C166.086 19.1296 165.792 19.3234 165.547 19.5718C165.286 19.8409 165.085 20.1622 164.956 20.5147C164.804 20.9369 164.73 21.3838 164.738 21.8329V29.8898H162.524V21.8329C162.584 21.0274 162.369 20.2251 161.914 19.559C161.696 19.3045 161.422 19.1043 161.113 18.9744C160.805 18.8444 160.47 18.7881 160.136 18.8099C159.597 18.808 159.068 18.9618 158.613 19.253C158.116 19.5748 157.68 19.9829 157.325 20.4581V29.8924H155.113Z" fill="black"/>
<path d="M175.535 29.8924V17.2379H176.854C176.993 17.2274 177.131 17.2688 177.241 17.3543C177.352 17.4398 177.426 17.5632 177.452 17.7008L177.613 18.9993C178.053 18.4464 178.581 17.9696 179.174 17.5876C179.777 17.2136 180.474 17.0227 181.183 17.0382C181.938 17.0038 182.678 17.2584 183.254 17.7505C183.807 18.2701 184.202 18.9376 184.392 19.6747C184.551 19.2417 184.785 18.8399 185.082 18.4876C185.358 18.1631 185.684 17.8846 186.046 17.6622C186.399 17.4469 186.783 17.2867 187.184 17.1874C187.585 17.0876 187.997 17.0373 188.41 17.0374C189.015 17.0273 189.617 17.1353 190.182 17.3554C190.687 17.5592 191.138 17.8785 191.499 18.2879C191.877 18.7259 192.159 19.2387 192.327 19.793C192.527 20.4548 192.624 21.1439 192.613 21.8355V29.8924H190.399V21.8355C190.455 21.0307 190.226 20.2317 189.752 19.5804C189.517 19.3177 189.227 19.1118 188.901 18.9782C188.576 18.8446 188.225 18.7868 187.875 18.809C187.52 18.8075 187.167 18.8732 186.836 19.0027C186.512 19.1298 186.218 19.3237 185.973 19.5719C185.712 19.8407 185.511 20.1621 185.382 20.5147C185.23 20.937 185.156 21.3838 185.164 21.833V29.8898H182.946V21.833C183.006 21.0275 182.791 20.2255 182.337 19.559C182.119 19.3045 181.844 19.1045 181.536 18.9745C181.227 18.8445 180.893 18.7882 180.559 18.8099C180.019 18.8078 179.49 18.9616 179.035 19.253C178.538 19.5749 178.102 19.9829 177.747 20.4581V29.8924H175.535Z" fill="black"/>
<path d="M205.211 29.8941H204.227C204.048 29.9015 203.869 29.8675 203.705 29.7946C203.631 29.7492 203.569 29.6866 203.523 29.6121C203.478 29.5375 203.451 29.4532 203.445 29.3661L203.196 28.191C202.864 28.491 202.541 28.7598 202.226 28.9975C201.916 29.232 201.582 29.4331 201.231 29.5975C200.876 29.7628 200.504 29.8867 200.122 29.9669C199.69 30.054 199.25 30.096 198.81 30.0921C198.344 30.0951 197.88 30.0251 197.436 29.8846C197.028 29.7561 196.65 29.5449 196.326 29.2641C196.002 28.9751 195.745 28.6178 195.574 28.2175C195.377 27.7433 195.282 27.2329 195.294 26.7193C195.296 26.2079 195.438 25.7069 195.704 25.2708C196.035 24.7528 196.49 24.3275 197.029 24.0348C197.779 23.6238 198.586 23.326 199.423 23.1511C200.613 22.9018 201.826 22.7868 203.041 22.8083V21.8157C203.098 21.0172 202.876 20.2237 202.413 19.5718C202.182 19.3104 201.894 19.1059 201.572 18.9739C201.25 18.842 200.901 18.7861 200.554 18.8107C200.09 18.7982 199.628 18.8685 199.189 19.0181C198.854 19.1376 198.533 19.2922 198.231 19.4792C197.962 19.6506 197.728 19.8032 197.535 19.9412C197.368 20.0698 197.166 20.1423 196.956 20.1486C196.816 20.1511 196.68 20.1098 196.564 20.0304C196.455 19.953 196.364 19.8523 196.298 19.7355L195.9 19.0233C196.548 18.3814 197.312 17.8686 198.151 17.5122C199.001 17.1704 199.909 17.0006 200.825 17.0124C201.467 17.0012 202.106 17.1201 202.702 17.3621C203.228 17.581 203.7 17.9145 204.082 18.3384C204.467 18.7767 204.755 19.2917 204.928 19.8495C205.124 20.4796 205.22 21.1367 205.214 21.7969L205.211 29.8941ZM199.465 28.533C199.825 28.5365 200.184 28.4962 200.535 28.413C200.851 28.3364 201.158 28.2234 201.448 28.0761C201.74 27.9276 202.015 27.7495 202.27 27.5447C202.543 27.3266 202.8 27.0888 203.038 26.8333V24.2208C202.168 24.2096 201.298 24.2753 200.439 24.4171C199.84 24.5135 199.255 24.6842 198.698 24.9254C198.314 25.0843 197.977 25.3399 197.721 25.6676C197.52 25.9448 197.413 26.2796 197.416 26.6225C197.409 26.9195 197.464 27.2148 197.578 27.489C197.675 27.7197 197.824 27.925 198.012 28.089C198.201 28.2487 198.422 28.3656 198.66 28.4318C198.922 28.5027 199.193 28.5373 199.465 28.5347V28.533Z" fill="black"/>
<path d="M208.57 29.8921V17.2376H209.889C210.027 17.2271 210.165 17.2685 210.276 17.354C210.386 17.4394 210.461 17.5629 210.486 17.7005L210.656 19.0719C211.182 18.4816 211.802 17.9839 212.491 17.5993C213.212 17.2129 214.019 17.019 214.836 17.0362C215.46 17.024 216.08 17.1407 216.658 17.379C217.167 17.596 217.619 17.9301 217.976 18.3545C218.341 18.8015 218.614 19.3177 218.778 19.8724C218.967 20.5086 219.059 21.1697 219.052 21.8335V29.8904H216.837V21.8335C216.886 21.0367 216.655 20.2481 216.184 19.605C215.933 19.329 215.623 19.1141 215.277 18.9767C214.931 18.8393 214.559 18.783 214.188 18.8121C213.546 18.8088 212.913 18.9724 212.353 19.287C211.76 19.6233 211.228 20.058 210.779 20.5727V29.8921H208.57Z" fill="black"/>
<path d="M231.27 29.895C231.132 29.9053 230.994 29.8638 230.884 29.7784C230.773 29.693 230.698 29.5697 230.673 29.4321L230.474 27.8962C229.961 28.5323 229.334 29.0678 228.627 29.4759C227.899 29.8809 227.078 30.0858 226.247 30.0698C225.569 30.0788 224.899 29.9356 224.284 29.6507C223.691 29.3689 223.175 28.9469 222.78 28.4207C222.334 27.8142 222.008 27.1268 221.822 26.3962C221.585 25.4872 221.472 24.5501 221.485 23.6106C221.478 22.7284 221.604 21.8501 221.859 21.0058C222.084 20.2471 222.449 19.5375 222.934 18.9136C223.408 18.3061 224.016 17.8181 224.71 17.4882C225.404 17.1583 226.166 16.9957 226.933 17.0134C227.614 16.9946 228.289 17.1287 228.911 17.4059C229.468 17.6756 229.966 18.0518 230.379 18.5133V11.4961H232.592V29.8993L231.27 29.895ZM226.979 28.2665C227.645 28.2816 228.302 28.1084 228.875 27.7668C229.459 27.3953 229.968 26.9164 230.375 26.3551V20.2387C230.034 19.7448 229.573 19.3466 229.036 19.0816C228.529 18.8565 227.98 18.7434 227.426 18.7499C226.905 18.7219 226.386 18.8224 225.914 19.0425C225.441 19.2625 225.029 19.5956 224.714 20.0124C224.021 21.0785 223.689 22.3414 223.77 23.6123C223.758 24.3242 223.829 25.035 223.981 25.7302C224.092 26.2492 224.303 26.7413 224.602 27.1788C224.857 27.5424 225.205 27.8297 225.61 28.0102C226.043 28.1919 226.509 28.2807 226.979 28.2708V28.2665Z" fill="black"/>
<path d="M241.289 17.036C242.003 17.0282 242.713 17.1577 243.379 17.4174C244.002 17.6613 244.566 18.0359 245.033 18.5162C245.516 19.0244 245.886 19.6289 246.121 20.2904C246.394 21.0622 246.526 21.8768 246.513 22.6955C246.533 22.9341 246.495 23.1741 246.401 23.3941C246.351 23.4574 246.285 23.5065 246.21 23.5365C246.135 23.5666 246.054 23.5766 245.974 23.5655H237.597C237.598 24.2739 237.707 24.978 237.92 25.6534C238.092 26.1965 238.372 26.6994 238.74 27.1328C239.08 27.5222 239.506 27.8261 239.984 28.0199C240.501 28.2217 241.051 28.3212 241.606 28.3131C242.092 28.3227 242.576 28.2573 243.042 28.1194C243.399 28.0082 243.747 27.868 244.081 27.7002C244.331 27.5741 244.574 27.4348 244.809 27.2828C244.954 27.1707 245.129 27.1034 245.312 27.0891C245.395 27.0846 245.478 27.1018 245.553 27.1389C245.628 27.1759 245.692 27.2317 245.739 27.3008L246.362 28.1134C246.081 28.4525 245.749 28.7457 245.379 28.9825C244.993 29.2292 244.582 29.4324 244.152 29.5885C243.714 29.747 243.263 29.8663 242.804 29.945C242.348 30.0227 241.886 30.0619 241.424 30.0624C240.601 30.0716 239.783 29.9208 239.017 29.6185C238.295 29.3317 237.645 28.8883 237.113 28.3199C236.555 27.7089 236.129 26.9876 235.863 26.202C235.55 25.2688 235.399 24.2887 235.415 23.3041C235.408 22.4621 235.545 21.6251 235.82 20.8296C236.07 20.094 236.465 19.4167 236.982 18.8377C237.498 18.2673 238.13 17.8154 238.836 17.5125C239.612 17.1844 240.447 17.0221 241.289 17.036ZM241.34 18.6722C240.878 18.6474 240.416 18.7171 239.982 18.8771C239.548 19.0371 239.151 19.2841 238.815 19.603C238.161 20.3128 237.758 21.2198 237.67 22.183H244.524C244.529 21.7018 244.457 21.2229 244.312 20.7644C244.182 20.3543 243.97 19.9752 243.689 19.6502C243.413 19.3369 243.072 19.0894 242.688 18.9259C242.261 18.7506 241.802 18.6648 241.34 18.6739V18.6722Z" fill="black"/>
<path d="M249.336 29.8953V17.2408H250.606C250.783 17.221 250.961 17.2704 251.103 17.3788C251.213 17.5134 251.278 17.6791 251.29 17.8528L251.439 19.8241C251.807 19.0206 252.354 18.313 253.038 17.7559C253.488 17.4207 254.007 17.1906 254.556 17.0824C255.106 16.9741 255.673 16.9904 256.216 17.1302C256.49 17.2063 256.754 17.3175 257 17.4611L256.713 19.123C256.698 19.2133 256.65 19.295 256.58 19.3526C256.509 19.4102 256.419 19.4398 256.328 19.4358C256.146 19.4218 255.966 19.382 255.794 19.3176C255.466 19.2266 255.126 19.1865 254.786 19.1984C254.081 19.1758 253.392 19.4164 252.853 19.8738C252.273 20.416 251.827 21.0878 251.554 21.8349V29.8918L249.336 29.8953Z" fill="black"/>
</svg>
